<?xml version="1.0" encoding="UTF-8" standalone="no"?>
<!-- Created with Inkscape (http://www.inkscape.org/) -->

<svg
   width="210mm"
   height="297mm"
   viewBox="0 0 210 297"
   version="1.1"
   id="svg1"
   xml:space="preserve"
   inkscape:version="1.3.2 (091e20e, 2023-11-25, custom)"
   sodipodi:docname="rysunek.svg"
   inkscape:export-filename="rysunek1.png"
   inkscape:export-xdpi="43.787205"
   inkscape:export-ydpi="43.787205"
   xmlns:inkscape="http://www.inkscape.org/namespaces/inkscape"
   xmlns:sodipodi="http://sodipodi.sourceforge.net/DTD/sodipodi-0.dtd"
   xmlns:xlink="http://www.w3.org/1999/xlink"
   xmlns="http://www.w3.org/2000/svg"
   xmlns:svg="http://www.w3.org/2000/svg"><sodipodi:namedview
     id="namedview1"
     pagecolor="#ffffff"
     bordercolor="#000000"
     borderopacity="0.25"
     inkscape:showpageshadow="2"
     inkscape:pageopacity="0.0"
     inkscape:pagecheckerboard="0"
     inkscape:deskcolor="#d1d1d1"
     inkscape:document-units="mm"
     inkscape:zoom="0.51717104"
     inkscape:cx="-145.01972"
     inkscape:cy="662.25673"
     inkscape:window-width="1920"
     inkscape:window-height="1017"
     inkscape:window-x="1912"
     inkscape:window-y="-8"
     inkscape:window-maximized="1"
     inkscape:current-layer="layer1" /><defs
     id="defs1"><linearGradient
       id="linearGradient15"
       inkscape:collect="always"><stop
         style="stop-color:#ffac4d;stop-opacity:1;"
         offset="0"
         id="stop15" /><stop
         style="stop-color:#d65d3a;stop-opacity:1;"
         offset="1"
         id="stop16" /></linearGradient><linearGradient
       id="linearGradient13"
       inkscape:collect="always"><stop
         style="stop-color:#a8a8a8;stop-opacity:0.34814814;"
         offset="0"
         id="stop13" /><stop
         style="stop-color:#000000;stop-opacity:0.95925927;"
         offset="0.95023698"
         id="stop14" /></linearGradient><linearGradient
       inkscape:collect="always"
       xlink:href="#linearGradient13"
       id="linearGradient14"
       x1="30.953806"
       y1="181.35696"
       x2="157.95113"
       y2="181.35696"
       gradientUnits="userSpaceOnUse" /><linearGradient
       inkscape:collect="always"
       xlink:href="#linearGradient15"
       id="linearGradient16"
       x1="7.9857258"
       y1="134.07725"
       x2="197.7315"
       y2="134.07725"
       gradientUnits="userSpaceOnUse" /></defs><g
     inkscape:label="Warstwa 1"
     inkscape:groupmode="layer"
     id="layer1"><path
       style="fill:url(#linearGradient16);fill-rule:evenodd;stroke:#000000;stroke-width:0.2;stroke-dasharray:none;stroke-opacity:1"
       d="m 26.191716,181.0002 c 0.153403,-2.37637 0.835019,-4.75275 2.011592,-7.12912 4.940538,-11.98148 12.934163,-21.34174 18.575468,-33.37635 0.750997,-4.77088 0.429552,-9.49748 -1.542,-13.58772 l -4.702799,-6.87332 C 38.29674,111.94565 38.822612,110.44281 35.75281,105.74817 32.074266,95.998466 28.37013,85.416246 25.265389,77.176813 21.885621,69.61368 19.276462,64.454795 16.583293,58.003854 14.446725,49.396649 5.5738811,36.502606 8.6996281,27.479533 14.470032,27.767285 21.506575,32.153076 28.181364,33.947216 l 42.325213,15.555419 c 7.035872,4.211586 11.512709,3.816909 14.28928,0.361754 l 4.341047,-19.353836 c 2.77298,-5.377569 4.75532,-11.191688 9.31971,-14.289281 11.622626,-7.9363717 9.591346,-3.353191 13.109036,0.361754 5.46137,6.827944 10.49086,11.696711 15.73629,17.545067 5.63165,9.602379 11.44392,14.869866 17.18332,21.886115 5.98759,8.358725 10.85837,14.483767 19.71559,18.539889 6.01416,4.356121 12.17887,7.507819 18.04247,13.068363 4.50251,3.50136 8.01097,7.050491 11.17182,14.2414 5.57355,10.62285 4.60539,22.51717 2.82664,36.04594 -0.92453,11.58355 -6.06825,29.96695 -10.11047,39.97821 -10.22893,26.7304 -41.08798,69.687 -52.82757,77.62985 23.40427,-32.47923 37.25038,-84.91131 14.03441,-121.62293 -4.53669,-4.68735 -19.01198,-10.88001 -31.77013,-3.78384 -6.65181,16.09868 -27.785026,26.55426 -41.421926,40.01924 -7.290714,6.64229 -15.741406,8.04175 -24.425226,6.91433 -2.44414,0.56925 -6.3416,0.85869 -8.85703,3.67711 l -1.758617,-0.8953 -1.087144,-0.73542 -1.151093,-0.54357 -1.438868,-0.60752 -2.238237,-0.22383 h -1.694667 l -1.310968,0.1279 -1.055169,0.44765 -1.119121,0.73542 -0.92727,0.73542 -0.479623,0.47962 z"
       id="path10"
       sodipodi:nodetypes="cccccccccccccccccccccccccccccccccccccccc" /><path
       style="fill:#010100;fill-opacity:1;fill-rule:evenodd;stroke:#000000;stroke-width:0.2;stroke-dasharray:none;stroke-opacity:1"
       d="m 25.603867,181.81415 c 0.876212,-2.07614 2.539588,-2.57795 3.843637,-3.79842 2.816599,-0.57325 5.306792,-0.54031 7.280296,0.45219 1.879843,0.7838 2.654711,1.5676 3.753199,2.3514 1.818302,0.91054 1.422605,2.86296 1.266137,4.70281 -0.946448,1.96137 -1.721553,3.58475 -2.30618,4.7028 -2.148746,1.04337 -4.054766,1.11583 -5.968942,1.22092 -0.964677,-0.18075 -1.929354,-0.17067 -2.894031,-0.67829 -1.433672,-1.93825 -3.409189,-3.51527 -5.561967,-4.97412 -0.629962,-1.4766 -0.08865,-2.74023 0.587851,-3.97929 z"
       id="path8"
       sodipodi:nodetypes="cccccccccc" /><path
       style="fill:url(#linearGradient14);fill-rule:evenodd;stroke:none;stroke-width:0.2;stroke-dasharray:none;stroke-opacity:1"
       d="m 40.671988,180.84967 c 1.167753,-1.39955 1.752537,-1.54238 3.645133,-2.90972 0.905953,-0.19947 1.396234,-0.023 3.517231,-0.92726 2.022745,0.10891 2.753239,-0.0457 5.818478,0.24255 3.208304,0.23864 3.971783,-0.19871 5.820362,-0.11466 6.17153,-1.82256 9.197718,-3.26598 11.157497,-4.44905 1.317092,-0.70281 3.207125,-1.71789 3.678826,-3.09701 2.419134,-2.25955 3.782253,-2.79358 6.187278,-5.73463 4.948506,-3.38591 0.208517,0.15651 5.519115,-4.21347 2.347541,-1.59457 5.521736,-4.13805 7.496686,-5.8376 2.625988,-1.94731 2.915855,-2.02216 5.684313,-4.2014 l 4.989013,-4.70186 c 2.95102,-3.03926 2.32338,-1.88874 5.13886,-4.81644 6.26229,-8.9078 4.07558,-8.31895 6.29622,-9.88759 5.20849,-3.20339 6.13427,-3.37417 13.21596,-3.54129 5.51937,0.32533 14.58925,2.98354 17.89327,5.70139 31.04799,32.36168 -0.91117,105.88973 -0.11682,100.6985 -5.31685,-10.04747 4.04926,-52.48031 -13.15046,-63.52956 -6.08995,-1.87532 -10.515,-1.23367 -14.96422,-0.31975 -9.31718,1.42637 -11.58147,4.2141 -17.45826,6.01127 l -20.399939,10.2959 c -11.459843,4.9576 -13.967902,7.77902 -23.021881,12.15044 -3.220323,0.50552 -10.231946,1.38558 -12.534134,-2.04639 -5.079443,0.74551 -9.251435,-0.77576 -12.278336,-3.19749 l -1.790592,-1.40689 c 0.988647,0.38915 2.263176,0.43524 3.546937,0.47026 1.350681,0.0629 2.065942,-0.32803 3.039879,-0.53421 0.860607,-0.31975 1.415254,-0.63949 1.918491,-0.95924 0.620644,-0.82379 1.071323,-1.51538 1.151093,-1.91849 0.378566,-0.60635 0.335486,-1.10521 0.767398,-1.53479 l 0.454739,-1.53092 0.05686,-1.15497 v -1.59874 z"
       id="path9"
       sodipodi:nodetypes="cccccccccccccccccccccccccccccccccc" /><path
       style="fill:#000000;fill-opacity:1;fill-rule:evenodd;stroke:#000000;stroke-width:0.2;stroke-dasharray:none;stroke-opacity:1"
       d="m 102.88355,81.698738 c -15.711083,-12.778024 -19.713686,-57.657104 2.27492,-64.61541 18.43869,14.665756 15.39046,28.87685 30.28294,43.995435 -6.82744,-1.756711 -15.71404,5.025595 -15.91718,7.0542 -1.77156,3.238028 -0.84869,8.548701 1.80877,15.193666 -8.36779,-1.463699 -10.43062,-7.831265 -12.84226,-13.927526 -2.38769,3.764437 -5.14012,6.96362 -5.60719,12.299635 z"
       id="path11"
       sodipodi:nodetypes="ccccccc" /><path
       style="fill:#000000;fill-opacity:1;fill-rule:evenodd;stroke:#000000;stroke-width:0.2;stroke-dasharray:none;stroke-opacity:1"
       d="M 60.496386,71.239931 C 47.133623,53.220604 28.279251,39.267446 11.510939,32.486432 c 2.724908,19.174929 15.745743,42.46823 24.556675,64.077569 0.168854,-12.982508 2.904545,-13.986442 4.988073,-18.033807 3.130111,4.567219 7.935407,10.316703 14.452624,9.464551 -0.249447,-13.233492 2.214372,-15.613923 4.988075,-16.754814 z"
       id="path12"
       sodipodi:nodetypes="cccccc" /><path
       style="fill:#0a000f;fill-opacity:1;fill-rule:evenodd;stroke:#000000;stroke-width:0.2;stroke-dasharray:none;stroke-opacity:1"
       d="m 71.611899,137.57593 c 7.752278,-0.24132 14.497685,-0.0727 18.864175,-9.69149 -2.92518,-1.22037 -6.697969,-5.45173 -12.838377,-2.65148 -5.001076,3.39001 -5.457431,7.90663 -6.025798,12.34297 z"
       id="path13"
       sodipodi:nodetypes="cccc" /></g></svg>
