<?xml version="1.0" encoding="UTF-8" standalone="no"?>
<!-- Created with Inkscape (http://www.inkscape.org/) -->

<svg
   width="145.52083mm"
   height="145.52083mm"
   viewBox="0 0 145.52083 145.52083"
   version="1.1"
   id="svg1"
   inkscape:version="1.3.2 (091e20e, 2023-11-25, custom)"
   sodipodi:docname="succes.svg"
   xmlns:inkscape="http://www.inkscape.org/namespaces/inkscape"
   xmlns:sodipodi="http://sodipodi.sourceforge.net/DTD/sodipodi-0.dtd"
   xmlns:xlink="http://www.w3.org/1999/xlink"
   xmlns="http://www.w3.org/2000/svg"
   xmlns:svg="http://www.w3.org/2000/svg">
  <sodipodi:namedview
     id="namedview1"
     pagecolor="#ffffff"
     bordercolor="#000000"
     borderopacity="0.25"
     inkscape:showpageshadow="2"
     inkscape:pageopacity="0.0"
     inkscape:pagecheckerboard="0"
     inkscape:deskcolor="#d1d1d1"
     inkscape:document-units="mm"
     inkscape:zoom="1"
     inkscape:cx="87"
     inkscape:cy="320.5"
     inkscape:window-width="1920"
     inkscape:window-height="1017"
     inkscape:window-x="1912"
     inkscape:window-y="-8"
     inkscape:window-maximized="1"
     inkscape:current-layer="layer1">
    <inkscape:page
       x="0"
       y="0"
       width="145.52083"
       height="145.52083"
       id="page1"
       margin="0"
       bleed="0"
       inkscape:export-filename="succes.png"
       inkscape:export-xdpi="96"
       inkscape:export-ydpi="96" />
    <inkscape:page
       x="124.44336"
       y="183.22838"
       width="1.4470158"
       height="0.18087698"
       id="page2" />
  </sodipodi:namedview>
  <defs
     id="defs1">
    <linearGradient
       id="linearGradient64"
       inkscape:collect="always">
      <stop
         style="stop-color:#c1c1c1;stop-opacity:1;"
         offset="0"
         id="stop64" />
      <stop
         style="stop-color:#c1c1c1;stop-opacity:0;"
         offset="1"
         id="stop65" />
    </linearGradient>
    <linearGradient
       id="linearGradient62"
       inkscape:collect="always">
      <stop
         style="stop-color:#979797;stop-opacity:1;"
         offset="0"
         id="stop62" />
      <stop
         style="stop-color:#ffffff;stop-opacity:0;"
         offset="1"
         id="stop63" />
    </linearGradient>
    <linearGradient
       id="linearGradient60"
       inkscape:collect="always">
      <stop
         style="stop-color:#d4d4d4;stop-opacity:1;"
         offset="0"
         id="stop60" />
      <stop
         style="stop-color:#ffffff;stop-opacity:0;"
         offset="1"
         id="stop61" />
    </linearGradient>
    <linearGradient
       id="linearGradient58"
       inkscape:collect="always">
      <stop
         style="stop-color:#166ccb;stop-opacity:1;"
         offset="0.51612902"
         id="stop58" />
      <stop
         style="stop-color:#2c6bc9;stop-opacity:0;"
         offset="1"
         id="stop59" />
    </linearGradient>
    <linearGradient
       id="linearGradient56"
       inkscape:collect="always">
      <stop
         style="stop-color:#1d60c6;stop-opacity:1;"
         offset="0.29493088"
         id="stop56" />
      <stop
         style="stop-color:#1d60c6;stop-opacity:0;"
         offset="1"
         id="stop57" />
    </linearGradient>
    <linearGradient
       id="linearGradient54"
       inkscape:collect="always">
      <stop
         style="stop-color:#1d6cdb;stop-opacity:0;"
         offset="0.31105989"
         id="stop55" />
      <stop
         style="stop-color:#dce6f5;stop-opacity:1;"
         offset="0.859447"
         id="stop54" />
    </linearGradient>
    <linearGradient
       id="linearGradient16"
       inkscape:collect="always">
      <stop
         style="stop-color:#350a0a;stop-opacity:0.54123712;"
         offset="0"
         id="stop17" />
      <stop
         style="stop-color:#b53030;stop-opacity:1;"
         offset="1"
         id="stop16" />
    </linearGradient>
    <linearGradient
       inkscape:collect="always"
       xlink:href="#linearGradient16"
       id="linearGradient17"
       x1="79.193302"
       y1="65.675464"
       x2="100.67943"
       y2="65.675464"
       gradientUnits="userSpaceOnUse" />
    <linearGradient
       inkscape:collect="always"
       xlink:href="#linearGradient54"
       id="linearGradient55"
       x1="118.08684"
       y1="448.28139"
       x2="445.86457"
       y2="448.28139"
       gradientUnits="userSpaceOnUse" />
    <linearGradient
       inkscape:collect="always"
       xlink:href="#linearGradient56"
       id="linearGradient57"
       x1="393.32832"
       y1="479.76707"
       x2="546.91349"
       y2="479.76707"
       gradientUnits="userSpaceOnUse" />
    <linearGradient
       inkscape:collect="always"
       xlink:href="#linearGradient58"
       id="linearGradient59"
       x1="3.0776148"
       y1="502.94415"
       x2="135.4175"
       y2="502.94415"
       gradientUnits="userSpaceOnUse" />
    <linearGradient
       inkscape:collect="always"
       xlink:href="#linearGradient60"
       id="linearGradient61"
       x1="232.49803"
       y1="315.46652"
       x2="331.63309"
       y2="315.46652"
       gradientUnits="userSpaceOnUse" />
    <linearGradient
       inkscape:collect="always"
       xlink:href="#linearGradient62"
       id="linearGradient63"
       x1="418.25365"
       y1="399.43513"
       x2="473.6567"
       y2="399.43513"
       gradientUnits="userSpaceOnUse" />
    <linearGradient
       inkscape:collect="always"
       xlink:href="#linearGradient64"
       id="linearGradient65"
       x1="58.336308"
       y1="440.45792"
       x2="105.35891"
       y2="440.45792"
       gradientUnits="userSpaceOnUse" />
  </defs>
  <g
     inkscape:label="Warstwa 1"
     inkscape:groupmode="layer"
     id="layer1">
    <path
       style="fill:none;fill-opacity:1;stroke:#000000;stroke-width:0.264583;stroke-opacity:1"
       d="M 0.54263094,145.06334 H 144.88246 L 117.35548,97.385213 103.94432,119.67981"
       id="path2"
       sodipodi:nodetypes="cccc" />
    <path
       style="fill:none;stroke:#000000;stroke-width:0.264583;stroke-opacity:1"
       d="M 118.43411,144.92552 74.489947,68.811991 30.488117,145.0254"
       id="path3"
       sodipodi:nodetypes="ccc" />
    <path
       style="fill:none;stroke:#000000;stroke-width:0.264583;stroke-opacity:1"
       d="M 0.69453124,144.99166 21.372605,109.17619 36.151384,135.08727"
       id="path4"
       sodipodi:nodetypes="ccc" />
    <path
       style="fill:none;fill-opacity:1;stroke:#000000;stroke-width:0.264583;stroke-opacity:1"
       d="m 110.33125,109.14062 4.7625,3.70417 3.96875,-4.23333 5.09323,5.09323 1.32291,-2.18282"
       id="path5" />
    <path
       style="fill:none;fill-opacity:1;stroke:#000000;stroke-width:0.264583;stroke-opacity:1"
       d="m 14.873549,120.76574 3.274052,2.89987 3.835317,-2.15152 3.086963,1.87089 3.367596,-1.6838"
       id="path6" />
    <path
       style="fill:none;fill-opacity:1;stroke:#000000;stroke-width:0.264583;stroke-opacity:1"
       d="m 61.458628,92.141168 6.454558,5.61266 8.512534,-5.986839 4.583674,6.173928 7.109367,-5.519116"
       id="path7" />
    <path
       style="fill:url(#linearGradient61);fill-opacity:1;stroke:#000000;stroke-width:0.707107;stroke-opacity:1"
       d="m 298.04551,357.68963 c -4.47245,-6.06489 -8.48906,-11.16572 -8.92581,-11.33516 -0.43674,-0.16944 -7.85276,4.66661 -16.48004,10.7468 -13.75408,9.69336 -15.83347,10.93988 -16.8836,10.12111 -5.65444,-4.40871 -23.0711,-20.12146 -22.89948,-20.65918 0.17603,-0.55155 48.04828,-83.77239 48.5558,-84.40913 0.25169,-0.31576 49.86715,85.90287 49.86715,86.656 0,0.56104 -24.34924,20.00578 -24.95237,19.92638 -0.0825,-0.0109 -3.8092,-4.98193 -8.28165,-11.04682 z"
       id="path8"
       transform="scale(0.26458333)" />
    <path
       style="fill:url(#linearGradient63);fill-opacity:1;stroke:#000000;stroke-width:0.707107;stroke-opacity:1"
       d="m 459.38441,418.78399 -9.42071,-9.36917 -7.54652,7.89724 -7.54651,7.89724 -8.13173,-6.34999 c -4.47245,-3.49249 -8.13173,-6.58844 -8.13173,-6.87987 0,-1.20861 24.75421,-41.73114 25.20532,-41.261 0.27052,0.28194 7.00352,11.78388 14.96222,25.55987 l 14.47035,25.04725 -2.10053,3.4138 c -1.15529,1.87759 -2.15428,3.41379 -2.21999,3.41379 -0.0657,0 -4.35878,-4.21612 -9.54017,-9.36916 z"
       id="path9"
       transform="scale(0.26458333)" />
    <path
       style="fill:#ffffff;fill-opacity:1;stroke:#000000;stroke-width:0.707107;stroke-opacity:1"
       d="m 65.730347,463.62004 c -1.555377,-1.42253 -4.167801,-3.77366 -5.805386,-5.22474 l -2.977429,-2.63832 11.745595,-20.34265 c 6.460077,-11.18846 11.829228,-20.44074 11.931446,-20.56063 0.102218,-0.11989 5.953764,9.87098 13.003436,22.20193 7.049671,12.33095 12.732181,22.49452 12.627791,22.58572 -0.75361,0.65845 -10.57434,5.28136 -11.219514,5.28136 -0.446592,0 -3.170506,-1.43189 -6.05314,-3.18198 -2.882635,-1.75009 -5.572098,-3.18198 -5.976586,-3.18198 -0.404487,0 -2.859236,1.23168 -5.454997,2.73708 -9.344559,5.41932 -8.597638,5.27247 -11.821216,2.32421 z"
       id="path10"
       transform="scale(0.26458333)" />
    <path
       style="fill:url(#linearGradient65);fill-opacity:1;stroke:#000000;stroke-width:0.707107;stroke-opacity:1"
       d="m 63.444997,460.50329 c -2.615324,-2.43068 -4.755134,-4.81299 -4.755134,-5.29403 0,-0.48103 4.932069,-9.4232 10.960155,-19.87147 l 10.960155,-18.99687 4.844339,8.20422 c 6.627296,11.22377 19.550848,34.20162 19.550848,34.76107 0,0.2509 -2.27256,1.45995 -5.05013,2.68677 l -5.050127,2.2306 -5.523529,-3.18597 c -3.037941,-1.75229 -5.919599,-3.18597 -6.403686,-3.18597 -0.484087,0 -3.678387,1.59099 -7.098445,3.53553 -3.420058,1.94455 -6.547017,3.53554 -6.948799,3.53554 -0.401782,0 -2.870322,-1.98874 -5.485647,-4.41942 z"
       id="path11"
       transform="scale(0.26458333)" />
    <path
       style="fill:#568bda;fill-opacity:1;stroke:#000000;stroke-width:0.707107;stroke-opacity:1"
       d="m 117.02617,547.27033 c 0,-0.33473 113.67391,-197.5481 114.2508,-198.21423 0.1213,-0.14006 5.67361,4.47382 12.33848,10.25305 6.66486,5.77923 12.64907,10.48441 13.29823,10.45594 0.64916,-0.0285 7.70335,-4.65689 15.67598,-10.28539 7.97263,-5.6285 14.86335,-10.45791 15.31272,-10.73203 0.51462,-0.31393 3.88319,3.62384 9.1011,10.63894 4.55625,6.12554 8.64336,11.21975 9.08247,11.32047 0.43912,0.10073 6.52596,-4.27254 13.52631,-9.71836 7.00036,-5.44582 12.88702,-9.8999 13.08148,-9.89795 0.2865,0.003 49.24731,84.55514 104.08518,179.74868 l 9.68643,16.81475 H 281.74576 c -90.59578,0 -164.71959,-0.17274 -164.71959,-0.38387 z"
       id="path12"
       transform="scale(0.26458333)" />
    <path
       style="fill:url(#linearGradient59);fill-opacity:1;stroke:#000000;stroke-width:0.707107;stroke-opacity:1"
       d="m 4.7523239,546.06321 c 0.564237,-0.87505 12.1073571,-20.84197 25.6513791,-44.37095 13.544021,-23.52898 24.877691,-43.06764 25.185933,-43.41926 0.31149,-0.35531 3.257167,1.76649 6.631338,4.77664 l 6.070897,5.41592 2.270064,-1.15566 c 1.248535,-0.63562 4.393865,-2.38735 6.989626,-3.89275 2.595761,-1.5054 5.05051,-2.73708 5.454997,-2.73708 0.404493,0 3.17114,1.47875 6.148116,3.28612 l 5.412683,3.28611 6.261133,-3.06894 c 3.44363,-1.68792 6.42375,-2.90632 6.62252,-2.70756 0.19876,0.19876 6.5838,11.29349 14.18896,24.65495 8.57568,15.06652 13.66731,24.71669 13.40559,25.40761 -0.23209,0.61273 -4.93825,8.97995 -10.45812,18.59383 l -10.03614,17.47977 -55.412432,0.0211 -55.4124293,0.0211 z"
       id="path13"
       transform="scale(0.26458333)" />
    <path
       style="fill:url(#linearGradient57);fill-opacity:1;stroke:#000000;stroke-width:0.707107;stroke-opacity:1"
       d="m 445.52144,542.17412 c -1.7467,-3.01404 -14.11234,-24.41286 -27.47919,-47.55293 l -24.30338,-42.07285 11.30223,-18.73833 c 6.21622,-10.30608 11.52029,-18.98796 11.78681,-19.29306 0.26652,-0.30509 4.39414,2.47914 9.17249,6.18719 4.77834,3.70805 8.88803,6.7316 9.13264,6.719 0.2446,-0.0126 3.62672,-3.4799 7.5158,-7.70512 l 7.07107,-7.68222 9.55509,9.47289 c 5.2553,5.21009 9.76628,9.47289 10.02438,9.47289 0.25811,0 1.4926,-1.78857 2.74332,-3.97459 2.00125,-3.49783 2.36044,-3.8159 2.99444,-2.65165 1.40374,2.57778 69.24486,120.142 70.23224,121.70787 l 1.00321,1.59099 h -48.78767 -48.78766 z"
       id="path14"
       transform="scale(0.26458333)" />
    <path
       style="fill:url(#linearGradient55);fill-opacity:1;stroke:#000000;stroke-width:0.707107;stroke-opacity:1"
       d="m 118.44039,546.58776 c 0,-0.42918 112.04724,-195.13176 112.87414,-196.13947 0.23847,-0.29061 1.10719,0.40989 14.75863,11.90064 4.6669,3.92825 9.21715,7.33358 10.11166,7.56741 1.66322,0.43476 6.59017,-2.60854 24.60556,-15.19846 l 7.14005,-4.98978 2.10681,2.2662 c 1.15874,1.24641 4.28017,5.12998 6.93651,8.63016 7.38423,9.73 8.7641,11.05314 10.54813,10.11443 0.81608,-0.42939 6.68975,-4.74338 13.0526,-9.58663 9.55905,-7.27612 11.72278,-8.63964 12.45506,-7.84884 0.86018,0.92893 27.87871,47.5332 82.74799,142.73199 14.68205,25.47352 27.31719,47.34963 28.07808,48.61359 l 1.38345,2.29809 H 281.83972 c -89.86963,0 -163.39933,-0.1617 -163.39933,-0.35933 z"
       id="path15"
       transform="scale(0.26458333)" />
    <path
       style="fill:url(#linearGradient17);fill-opacity:1;stroke:#000000;stroke-width:0.665;stroke-opacity:1;stroke-dasharray:none"
       d="M 79.325593,83.067368 V 48.455966 l 21.221547,5.686295 V 67.726096 L 79.310668,62.0358"
       id="path16" />
    <path
       sodipodi:type="star"
       style="fill:#e4fd61;fill-opacity:1;stroke:#000000;stroke-width:0.665001;stroke-dasharray:none;stroke-opacity:1"
       id="path18"
       inkscape:flatsided="false"
       sodipodi:sides="5"
       sodipodi:cx="105.51801"
       sodipodi:cy="25.444057"
       sodipodi:r1="12.01016"
       sodipodi:r2="7.8708792"
       sodipodi:arg1="1.2539718"
       sodipodi:arg2="1.8822904"
       inkscape:rounded="0.36096158"
       inkscape:randomized="0"
       d="m 109.25979,36.856467 c -2.50273,0.820565 -3.64699,-3.11309 -6.15405,-3.920303 -2.50707,-0.807213 -5.731513,1.719824 -7.285301,-0.40684 -1.553789,-2.126663 1.833743,-4.430488 1.826723,-7.064289 -0.007,-2.633801 -3.406784,-4.919535 -1.864354,-7.054451 1.542431,-2.134916 4.780302,0.374897 7.283032,-0.445669 2.50272,-0.820565 3.626,-4.760263 6.13306,-3.95305 2.50706,0.807213 1.12065,4.662187 2.67444,6.788851 1.55378,2.126663 5.64777,1.977531 5.65479,4.611331 0.007,2.633801 -4.0877,2.506494 -5.63013,4.64141 -1.54243,2.134915 -0.13549,5.982444 -2.63821,6.80301 z"
       inkscape:transform-center-x="-0.93676845"
       inkscape:transform-center-y="-0.0081218283" />
    <path
       sodipodi:type="star"
       style="fill:#e4fd61;fill-opacity:1;stroke:#000000;stroke-width:0.665001;stroke-dasharray:none;stroke-opacity:1"
       id="path19"
       inkscape:flatsided="false"
       sodipodi:sides="5"
       sodipodi:cx="124.41396"
       sodipodi:cy="44.340012"
       sodipodi:r1="7.8688526"
       sodipodi:r2="5.1568661"
       sodipodi:arg1="1.0752447"
       sodipodi:arg2="1.7035632"
       inkscape:rounded="0.36096158"
       inkscape:randomized="0"
       d="m 128.15574,51.262293 c -1.51805,0.820565 -2.71399,-1.582365 -4.42443,-1.810799 -1.71044,-0.228434 -3.49505,1.776437 -4.74456,0.586258 -1.2495,-1.190179 0.66626,-3.070129 0.35495,-4.767445 -0.3113,-1.697316 -2.76952,-2.775043 -2.02371,-4.331179 0.74581,-1.556137 3.12575,-0.31508 4.6438,-1.135645 1.51804,-0.820565 1.78339,-3.491507 3.49383,-3.263073 1.71044,0.228433 1.26557,2.875399 2.51507,4.065578 1.24951,1.190178 3.87172,0.617172 4.18303,2.314488 0.3113,1.697316 -2.34359,2.092174 -3.0894,3.648311 -0.74581,1.556136 0.60946,3.87294 -0.90858,4.693506 z"
       inkscape:transform-center-x="-0.26442672"
       inkscape:transform-center-y="-0.3605227" />
    <path
       sodipodi:type="star"
       style="fill:#e4fd61;fill-opacity:1;stroke:#000000;stroke-width:0.665001;stroke-dasharray:none;stroke-opacity:1"
       id="path20"
       inkscape:flatsided="false"
       sodipodi:sides="5"
       sodipodi:cx="27.876211"
       sodipodi:cy="57.997486"
       sodipodi:r1="14.465233"
       sodipodi:r2="9.4798155"
       sodipodi:arg1="0.090659887"
       sodipodi:arg2="0.71897842"
       inkscape:rounded="0.36096158"
       inkscape:randomized="0"
       d="m 42.282038,59.307107 c -0.287198,3.159176 -5.1832,2.546923 -7.272465,4.93394 -2.089265,2.387017 -0.833936,7.158792 -3.92724,7.86189 -3.093304,0.703098 -4.023965,-4.142474 -6.939771,-5.391854 -2.915806,-1.249381 -7.066116,1.419068 -8.690685,-1.30557 -1.62457,-2.724637 2.696252,-5.107113 2.98345,-8.266289 0.287198,-3.159176 -3.533164,-6.281759 -1.443899,-8.668776 2.089265,-2.387017 5.690341,0.986104 8.783645,0.283006 3.093305,-0.703097 4.882501,-5.301409 7.798307,-4.052029 2.915806,1.249381 0.820571,5.71656 2.44514,8.441198 1.62457,2.724637 6.550716,3.005308 6.263518,6.164484 z"
       inkscape:transform-center-x="-0.81469689"
       inkscape:transform-center-y="0.33235753" />
    <path
       sodipodi:type="star"
       style="fill:#e4fd61;fill-opacity:1;stroke:#000000;stroke-width:0.665001;stroke-dasharray:none;stroke-opacity:1"
       id="path21"
       inkscape:flatsided="false"
       sodipodi:sides="5"
       sodipodi:cx="49.765583"
       sodipodi:cy="28.998741"
       sodipodi:r1="11.139241"
       sodipodi:r2="7.3001208"
       sodipodi:arg1="-1.436025"
       sodipodi:arg2="-0.80770651"
       inkscape:rounded="0.36096158"
       inkscape:randomized="0"
       d="m 51.262293,17.96051 c 2.420667,0.328226 1.783391,4.074032 3.548825,5.762405 1.765435,1.688374 5.47909,0.884661 5.914956,3.288281 0.435866,2.403619 -3.323537,2.95505 -4.383726,5.155814 -1.060189,2.200765 0.851769,5.4843 -1.299519,6.641592 -2.151288,1.157292 -3.83745,-2.247711 -6.258117,-2.575937 -2.420668,-0.328226 -4.952667,2.504822 -6.718102,0.816449 -1.765435,-1.688373 0.951862,-4.344212 0.515997,-6.747831 -0.435866,-2.40362 -3.912686,-3.936234 -2.852497,-6.136999 1.060189,-2.200764 4.425733,-0.43716 6.577021,-1.594452 2.151287,-1.157292 2.534494,-4.937548 4.955162,-4.609322 z"
       inkscape:transform-center-x="-0.37995071"
       inkscape:transform-center-y="-0.50476995" />
    <path
       style="fill:#e4fd61;fill-opacity:1;stroke:none;stroke-width:0.665001;stroke-dasharray:none;stroke-opacity:1"
       d="M 80.962499,97.895832 107.98379,144.90126"
       id="path22"
       sodipodi:nodetypes="cc" />
  </g>
</svg>
